<svg xmlns="http://www.w3.org/2000/svg" xmlns:xlink="http://www.w3.org/1999/xlink" width="2000" zoomAndPan="magnify" viewBox="0 0 1500 1499.999933" height="2000" preserveAspectRatio="xMidYMid meet" version="1.0"><defs><g/><clipPath id="e6617b090a"><path d="M 942 789 L 1336 789 L 1336 1396.636719 L 942 1396.636719 Z M 942 789 " clip-rule="nonzero"/></clipPath><clipPath id="3bf6d68d76"><path d="M 163 307 L 1152 307 L 1152 1396.636719 L 163 1396.636719 Z M 163 307 " clip-rule="nonzero"/></clipPath></defs><rect x="-150" width="1800" fill="#ffffff" y="-149.999993" height="1799.99992" fill-opacity="1"/><rect x="-150" width="1800" fill="#0a0a0a" y="-149.999993" height="1799.99992" fill-opacity="1"/><g clip-path="url(#e6617b090a)"><path fill="#e7e3dd" d="M 1322.324219 1245.617188 L 1058.894531 789.4375 L 942.75 990.839844 L 1147.859375 1346.191406 C 1166.390625 1378.316406 1200.246094 1396.605469 1235.089844 1396.605469 C 1252.140625 1396.605469 1269.441406 1392.15625 1285.253906 1383.011719 C 1333.691406 1355.089844 1350 1293.804688 1322.324219 1245.617188 Z M 1322.324219 1245.617188 " fill-opacity="1" fill-rule="nonzero"/></g><g clip-path="url(#3bf6d68d76)"><path fill="#e7e3dd" d="M 1137.480469 538.863281 L 1025.78125 732.355469 L 909.390625 933.753906 L 729.488281 1245.371094 C 675.617188 1338.78125 575.042969 1396.851562 467.296875 1396.851562 C 357.824219 1396.851562 259.71875 1340.261719 204.859375 1245.371094 C 150 1150.722656 150 1037.296875 204.859375 942.402344 L 519.6875 397.511719 C 552.304688 340.921875 610.875 307.066406 676.113281 307.066406 C 741.351562 307.066406 799.917969 340.921875 832.785156 397.511719 L 844.152344 417.28125 L 876.769531 473.625 L 760.378906 675.023438 L 676.113281 529.222656 L 379.570312 1042.980469 C 353.128906 1088.699219 370.675781 1129.222656 379.570312 1144.546875 C 388.46875 1159.867188 414.664062 1195.453125 467.546875 1195.453125 C 503.625 1195.453125 537.480469 1175.929688 555.273438 1144.546875 L 793.246094 732.355469 L 909.636719 530.953125 L 963.015625 438.285156 C 990.9375 390.097656 1052.472656 373.539062 1100.660156 401.464844 C 1148.847656 429.140625 1165.402344 490.675781 1137.480469 538.863281 Z M 1137.480469 538.863281 " fill-opacity="1" fill-rule="nonzero"/></g><path fill="#e7e3dd" d="M 1088.550781 299.652344 C 1142.421875 420.988281 1322.074219 346.605469 1274.628906 222.550781 C 1220.511719 101.464844 1040.855469 175.847656 1088.550781 299.652344 Z M 1088.550781 299.652344 " fill-opacity="1" fill-rule="nonzero"/><g fill="#e7e3dd" fill-opacity="1"><g transform="translate(369.099282, 596.071215)"><g><path d="M -66.53125 -45.90625 L -54.71875 -64.78125 C -51.65625 -69.664062 -48 -72.476562 -43.75 -73.21875 C -39.507812 -73.96875 -34.722656 -72.707031 -29.390625 -69.4375 L 2.734375 -49.515625 C 9.515625 -45.347656 13.851562 -41.003906 15.75 -36.484375 C 17.65625 -31.972656 16.878906 -26.953125 13.421875 -21.421875 L 1.90625 -3.03125 Z M -0.078125 -26.78125 C 1.484375 -29.28125 1.046875 -31.296875 -1.390625 -32.828125 L -36.6875 -54.9375 C -38.226562 -55.90625 -39.457031 -56.503906 -40.375 -56.734375 C -41.289062 -56.972656 -42.082031 -56.859375 -42.75 -56.390625 C -43.414062 -55.921875 -44.160156 -55.023438 -44.984375 -53.703125 L -45.9375 -52.171875 L -1.578125 -24.375 Z M -0.078125 -26.78125 "/></g></g></g><g fill="#e7e3dd" fill-opacity="1"><g transform="translate(393.701498, 556.801233)"><g><path d="M 9.03125 -13 C 6.195312 -8.476562 2.753906 -6.320312 -1.296875 -6.53125 C -5.347656 -6.738281 -10.15625 -8.585938 -15.71875 -12.078125 C -20.289062 -14.941406 -23.421875 -17.734375 -25.109375 -20.453125 C -26.804688 -23.171875 -27.5625 -25.953125 -27.375 -28.796875 C -27.1875 -31.640625 -26.421875 -35.671875 -25.078125 -40.890625 L -23.96875 -45.515625 L -24.125 -45.609375 L -29.9375 -49.25 C -31.46875 -50.21875 -32.835938 -50.65625 -34.046875 -50.5625 C -35.253906 -50.46875 -36.125 -49.992188 -36.65625 -49.140625 C -37.125 -48.398438 -37.1875 -47.535156 -36.84375 -46.546875 C -36.5 -45.554688 -35.742188 -44.695312 -34.578125 -43.96875 L -31.0625 -41.765625 L -39.546875 -28.21875 L -41.46875 -29.421875 C -47.195312 -33.003906 -50.441406 -36.90625 -51.203125 -41.125 C -51.972656 -45.34375 -50.460938 -50.476562 -46.671875 -56.53125 C -43.648438 -61.363281 -39.925781 -64.5 -35.5 -65.9375 C -31.082031 -67.382812 -26.566406 -66.660156 -21.953125 -63.765625 L 22.5 -35.921875 L 13.8125 -22.0625 L 6.890625 -26.40625 C 8.847656 -24.21875 10.015625 -21.953125 10.390625 -19.609375 C 10.773438 -17.265625 10.320312 -15.0625 9.03125 -13 Z M 1.625 -25.265625 C 2.289062 -26.328125 2.328125 -27.359375 1.734375 -28.359375 C 1.140625 -29.359375 0.207031 -30.257812 -1.0625 -31.0625 L -17.3125 -41.234375 C -17.8125 -38.671875 -17.757812 -36.507812 -17.15625 -34.75 C -16.550781 -33 -15.164062 -31.445312 -13 -30.09375 L -5.5 -25.390625 C -2.050781 -23.234375 0.320312 -23.191406 1.625 -25.265625 Z M 1.625 -25.265625 "/></g></g></g><g fill="#e7e3dd" fill-opacity="1"><g transform="translate(417.804683, 518.327802)"><g><path d="M -56.5625 -39.328125 L -47.828125 -53.25 L -40.421875 -48.609375 C -42.441406 -50.703125 -43.75 -52.929688 -44.34375 -55.296875 C -44.9375 -57.660156 -44.484375 -60.035156 -42.984375 -62.421875 C -40.523438 -66.347656 -37.492188 -68.492188 -33.890625 -68.859375 C -30.285156 -69.234375 -26.253906 -68.023438 -21.796875 -65.234375 L 23.203125 -37.03125 L 14.625 -23.34375 L -28.953125 -50.640625 C -30.222656 -51.441406 -31.46875 -51.867188 -32.6875 -51.921875 C -33.914062 -51.984375 -34.863281 -51.484375 -35.53125 -50.421875 C -36.425781 -48.992188 -36.363281 -47.644531 -35.34375 -46.375 C -34.320312 -45.101562 -32.71875 -43.785156 -30.53125 -42.421875 L 10.484375 -16.71875 L 1.75 -2.796875 Z M -56.5625 -39.328125 "/></g></g></g><g fill="#e7e3dd" fill-opacity="1"><g transform="translate(442.706317, 478.57989)"><g><path d="M -60.515625 -41.703125 L -70.21875 -47.78125 L -61.5 -61.703125 L -51.796875 -55.625 Z M 1.703125 -2.71875 L -56.609375 -39.25 L -47.890625 -53.171875 L 10.421875 -16.640625 Z M 1.703125 -2.71875 "/></g></g></g><g fill="#e7e3dd" fill-opacity="1"><g transform="translate(454.832765, 459.223689)"><g><path d="M 1.921875 -1.125 L 6.125 -7.828125 C 6.71875 -8.773438 6.617188 -9.5 5.828125 -10 C 5.453125 -10.226562 5.144531 -10.382812 4.90625 -10.46875 L -57.921875 -37.171875 L -49.578125 -50.46875 L -19.5 -35.28125 L -4.1875 -27.46875 L -17.75 -38.078125 L -44.234375 -59 L -35.859375 -72.375 L 18.703125 -23.109375 C 20.753906 -21.304688 21.960938 -19.492188 22.328125 -17.671875 C 22.703125 -15.847656 22.125 -13.710938 20.59375 -11.265625 L 10.765625 4.421875 Z M 1.921875 -1.125 "/></g></g></g><g fill="#e7e3dd" fill-opacity="1"><g transform="translate(477.838088, 422.502662)"><g><path d="M 9.03125 -13 C 6.195312 -8.476562 2.753906 -6.320312 -1.296875 -6.53125 C -5.347656 -6.738281 -10.15625 -8.585938 -15.71875 -12.078125 C -20.289062 -14.941406 -23.421875 -17.734375 -25.109375 -20.453125 C -26.804688 -23.171875 -27.5625 -25.953125 -27.375 -28.796875 C -27.1875 -31.640625 -26.421875 -35.671875 -25.078125 -40.890625 L -23.96875 -45.515625 L -24.125 -45.609375 L -29.9375 -49.25 C -31.46875 -50.21875 -32.835938 -50.65625 -34.046875 -50.5625 C -35.253906 -50.46875 -36.125 -49.992188 -36.65625 -49.140625 C -37.125 -48.398438 -37.1875 -47.535156 -36.84375 -46.546875 C -36.5 -45.554688 -35.742188 -44.695312 -34.578125 -43.96875 L -31.0625 -41.765625 L -39.546875 -28.21875 L -41.46875 -29.421875 C -47.195312 -33.003906 -50.441406 -36.90625 -51.203125 -41.125 C -51.972656 -45.34375 -50.460938 -50.476562 -46.671875 -56.53125 C -43.648438 -61.363281 -39.925781 -64.5 -35.5 -65.9375 C -31.082031 -67.382812 -26.566406 -66.660156 -21.953125 -63.765625 L 22.5 -35.921875 L 13.8125 -22.0625 L 6.890625 -26.40625 C 8.847656 -24.21875 10.015625 -21.953125 10.390625 -19.609375 C 10.773438 -17.265625 10.320312 -15.0625 9.03125 -13 Z M 1.625 -25.265625 C 2.289062 -26.328125 2.328125 -27.359375 1.734375 -28.359375 C 1.140625 -29.359375 0.207031 -30.257812 -1.0625 -31.0625 L -17.3125 -41.234375 C -17.8125 -38.671875 -17.757812 -36.507812 -17.15625 -34.75 C -16.550781 -33 -15.164062 -31.445312 -13 -30.09375 L -5.5 -25.390625 C -2.050781 -23.234375 0.320312 -23.191406 1.625 -25.265625 Z M 1.625 -25.265625 "/></g></g></g><g fill="#e7e3dd" fill-opacity="1"><g transform="translate(501.941267, 384.029241)"><g><path d="M 1.75 -2.796875 L -67.078125 -45.921875 L -58.203125 -60.09375 L 10.625 -16.96875 Z M 1.75 -2.796875 "/></g></g></g></svg>